<?xml version="1.0" encoding="UTF-8"?>
<svg width="1200pt" height="1200pt" version="1.1" viewBox="0 0 1200 1200" xmlns="http://www.w3.org/2000/svg">
 <path d="m921.74 928.08c-8.8125-81.094-64.172-140.44-141-146.95-15.422-66.281 12.047-131.06 41.109-199.45 28.828-60.609 49.781-126.79 17.625-186.05-33.562-70.219-129.28-97.547-205.97-88.828-27.516 2.2969-39.047-5.4375-42.422-12.094 25.641-92.25-5.2031-170.63-98.578-185.81-63.328-9.9375-120.89-45.469-121.45-45.844-3.7969-2.3438-8.4844-2.4844-12.375-0.32812-3.8906 2.1094-6.3281 6.1875-6.3281 10.641 1.0312 118.27 25.312 190.78 98.109 229.08-33.234 4.3125-62.391 21.281-79.359 45.844-48.75 70.641-89.109 106.78-89.484 107.16-6.5625 5.5312-4.8281 17.062 3.1406 20.344 55.406 24.75 104.34 37.172 146.34 37.172 101.39 2.3438 152.21-80.203 158.26-149.9 48.516-29.766 135.94 6.5156 161.26 46.875 20.438 30 19.828 59.812-2.2031 96.797-26.766 45.703-57.234 86.109-77.906 140.39-20.625 52.359-28.734 111.75-23.297 168.19-94.688 63.844-322.55 22.266-309.94 182.72 3.5156 38.25 20.906 71.203 50.25 95.438 44.391 40.031 136.6 52.688 209.58 43.547 190.69-21.703 336.66-60.938 324.74-208.87zm-313.45-597.71c-13.172 3.2344-24.234 7.9219-30.656 11.016-13.969-10.5-28.312-19.219-42.891-25.641 14.156-1.3125 26.719-3.9375 36.656-6.6562 8.0625 12.281 20.812 18.656 36.938 21.281zm-231.24-235.87c23.344 12.188 65.531 31.359 111.7 38.625 76.828 12.234 100.88 76.125 79.031 151.64-117.47 33.984-189.42-45.562-190.74-190.26zm123.94 376.64c-44.766 26.25-108.47 22.688-189.52-10.594 16.406-16.734 45.984-49.359 79.828-98.391 41.344-53.953 118.83-43.266 173.53 0-3.5156 27.609-16.406 81.234-63.797 108.98zm192.32 184.78c19.875-52.031 50.297-92.438 76.219-136.82 57.797-90.562-15.844-171.14-109.64-189.24 60-1.2188 133.13 23.203 157.82 76.875 17.953 35.156 18.188 77.625 0.5625 119.81-6.0938 15.375-12.516 30.516-18.938 45.516-29.906 70.312-58.266 137.02-43.828 208.64-28.688 1.4062-57.984 9.6094-84.844 22.172-3.2344-49.594 4.5469-101.16 22.641-147zm-35.672 181.6c12.703-7.5 25.406-13.641 38.062-18.562-13.031 60.609-92.859 86.953-143.11 55.453 37.547-8.2969 74.297-18.656 105-36.891zm217.26 179.81c-39.609 49.125-131.29 80.297-280.26 95.297-84.75 8.5312-150.98-4.6406-191.53-38.062-24.188-19.969-38.531-47.203-41.438-78.75-8.7188-78.844 60.703-95.438 158.9-114.7 67.875 64.125 191.06 24.656 201.71-70.641 87.281-23.438 166.22 27.375 175.22 120.47 3.9375 34.453-3.4688 62.719-22.594 86.438z"/>
 <path d="m861.94 960.47c-16.781-4.3594-15.938 17.484-25.219 26.109-10.031 12.469-26.344 23.859-48.422 33.891-11.906 5.2031-7.7344 23.672 5.0625 23.391 26.672-8.1562 49.547-26.672 62.391-41.906 7.875-10.969 24.703-33.328 6.1406-41.484z"/>
 <path d="m854.81 904.78c-15.188 4.2656-6.75 20.625-6.0469 31.641 0.75 6.75 6.9375 11.578 13.547 10.781 16.594-2.625 9.375-22.5 7.2656-33.422-1.5938-6.5625-8.25-10.594-14.766-9z"/>
</svg>
