<?xml version="1.0" encoding="UTF-8"?>
<svg width="1200pt" height="1200pt" version="1.1" viewBox="0 0 1200 1200" xmlns="http://www.w3.org/2000/svg">
 <path d="m548.4 583.2-1.1992-13.199c0-3.6016-6-80.398 30-126 18-21.602 34.801-33.602 49.199-42 10.801-6 19.199-12 25.199-20.398l8.4023-9.6016 7.1992 10.801c9.6016 14.398 20.398 51.602 6 93.602-10.801 32.398-38.398 75.602-114 102zm108-177.6c-6 4.8008-12 8.3984-19.199 13.199-13.199 8.3984-28.801 18-44.398 37.199-22.801 28.801-26.398 74.398-26.398 98.398 45.602-19.199 76.801-48 87.602-84 9.5977-26.398 5.9961-50.398 2.3945-64.797zm116.4 135.6c-7.1992 0-14.398 0-21.602-1.1992l-10.801-1.1992 2.3984-10.801c4.8008-25.199 27.602-74.398 84-75.602 9.6016 0 19.199 1.1992 28.801 2.3984l10.801 2.3984-3.5977 10.805c-10.801 46.801-42 72-90 73.199zm109.2 199.2c2.3984 6 3.6016 13.199 6 20.398l2.3984 9.6016-9.6016 1.1992c-24 3.6016-74.398-3.6016-92.398-55.199-2.3984-8.3984-4.8008-16.801-6-27.602l-2.3984-8.3984h9.6016c45.598-3.5977 78 18 92.398 60zm-519.6 72-9.6016-21.602c-12-26.398-22.801-86.398 28.801-124.8 8.3984-6 18-10.801 27.602-15.602l21.602-9.6016 8.3984 21.602c19.199 49.199 6 94.801-36 126-6 4.8008-13.199 8.3984-20.398 13.199zm55.203-139.2c-8.3984 3.6016-15.602 7.1992-21.602 12-38.398 28.801-32.398 73.199-22.801 93.602 6-3.6016 10.801-6 15.602-9.6016 33.598-25.199 43.199-57.598 28.801-96zm583.2-123.6c33.602-3.6016 58.801-18 60-19.199l9.6016-4.8008-4.8008-8.3984c-18-31.199-39.602-52.801-64.801-64.801 18-36 12-74.398 12-76.801l-1.1992-9.6016-9.6016 1.1992c-7.1992 1.1992-15.602 2.3984-22.801 4.8008 21.602-39.602 25.199-80.398 25.199-81.602l1.1992-10.801h-10.801c-39.602-2.3984-72 4.8008-99.602 19.199 3.6016-18 4.8008-39.602-2.3984-64.801l-2.3984-9.6016-9.6016 2.3984c-18 3.6016-32.398 10.801-45.602 19.199 13.199-66-14.398-129.6-15.602-133.2l-3.6016-9.6016-10.793 4.8086c-45.602 21.602-93.602 56.398-112.8 112.8-4.8008-10.801-12-22.801-22.801-33.602l-6-7.1992-7.1992 6c-6 4.8008-12 10.801-16.801 16.801 0-20.398-4.8008-40.801-14.398-64.801l-3.6016-9.6016-9.5977 3.6016c-26.398 10.801-45.602 26.398-57.602 45.602-10.801-56.398-54-97.199-56.398-99.602l-7.1992-7.1992-7.1992 7.1992c-30 33.602-45.602 68.398-48 103.2-25.199-33.602-55.199-54-57.602-55.199l-8.3984-6-4.8008 8.3984c-26.398 44.398-37.199 86.398-30 126-22.801-16.801-46.801-22.801-48-22.801l-9.6016-2.3984-2.3984 9.6016c-3.6016 18-4.8008 37.199-1.1992 55.199-26.398-15.602-54-18-73.199-18-28.801 1.1992-50.398 9.6016-51.602 9.6016l-9.6016 3.6016 4.8008 9.6016c18 40.801 42 69.602 72 85.199-26.398 4.8008-44.398 18-44.398 19.199l-8.3984 6 7.1992 8.3984c16.801 21.602 36 36 55.199 43.199-46.801 13.199-76.801 46.801-78 48l-7.1992 8.3984 8.3984 7.1992c34.801 27.602 68.398 43.199 102 46.801-37.199 26.398-56.398 62.398-57.602 64.801l-8.3984 12 9.6016 4.8008c36 15.602 70.801 24 102 22.801 42-1.1992 79.199-18 109.2-49.199 10.801 2.3984 20.398 3.6016 31.199 3.6016 14.398 0 28.801-3.6016 43.199-9.6016-26.398 32.398-19.199 74.398-9.6016 94.801l4.8008 9.6016 9.6016-4.8008c7.1992-3.6016 13.199-7.1992 19.199-12 8.3984-7.1992 15.602-14.398 21.602-21.602 10.801 26.398 22.801 57.602 28.801 93.602 16.801 90 1.1992 304.8 0 324-1.1992 25.199-13.199 36-37.199 37.199-3.6016 0-21.602 1.1992-20.398 13.199 1.1992 10.801 15.602 9.6016 19.199 9.6016h85.199c19.199 0 44.398 0 68.398 1.1992 20.398 0 34.801 1.1992 45.602 1.1992 31.199 0 31.199-6 32.398-10.801 1.1992-3.6016-3.6016-12-9.6016-14.398-60-14.398-97.199-34.801-99.602-82.801 0-2.3984-9.6016-183.6 1.1992-278.4 3.6016-30 8.3984-49.199 13.199-60 20.398 27.602 48 43.199 68.398 49.199l25.199 8.3984 6-25.199c2.3984-9.6016 4.8008-20.398 4.8008-30 3.6016-33.602-2.3984-62.398-18-86.398 26.398 20.398 54 30 84 28.801 22.801-1.1992 45.602-7.1992 69.602-20.398 22.801 10.801 44.398 14.398 63.602 14.398 54-1.1992 99.602-31.199 102-32.398l8.3984-6-6-8.3984c-19.195-30.008-38.398-49.207-59.996-62.406zm-788.4 88.797c14.398-21.602 54-72 117.6-73.199h2.3984c-1.1992 1.1992-2.3984 2.3984-3.6016 2.3984l-7.1992 7.1992 8.3984 7.1992c18 15.602 36 27.602 54 36-44.395 40.805-102 48.004-171.6 20.402zm219.6-110.4c-31.199-28.801-44.398-69.602-40.801-124.8 18 6 56.398 20.398 80.398 55.199 16.801 25.199 22.801 55.199 19.199 91.199-19.195-13.199-38.398-19.199-58.797-21.598zm182.4 247.2c-10.801 97.199-1.1992 274.8-1.1992 282 1.1992 42 22.801 66 52.801 81.602-22.801 0-48-1.1992-66-1.1992h-32.398c6-8.3984 9.6016-20.398 10.801-32.398 1.1992-12 16.801-234 0-330-8.3984-46.801-24-86.398-38.398-116.4 1.1992-2.3984 1.1992-6 1.1992-8.3984 15.602 20.398 30 48 39.602 64.801 3.6016 7.1992 7.1992 13.199 8.3984 15.602l9.6016 15.602 9.6016-15.602c6-9.6016 15.602-28.801 24-46.801 1.1992 3.6016 2.3984 6 3.6016 8.3984-6.0078 9.5938-15.609 32.395-21.609 82.793zm117.6-58.801c-1.1992 8.3984-2.3984 16.801-4.8008 26.398v1.1992h-1.1992c-28.801-8.3984-80.398-42-73.199-108 1.1992-10.801 3.6016-21.602 8.3984-33.602v-1.1992h1.1992c52.801 21.605 75.602 60.004 69.602 115.2zm97.199-157.2c-18-7.1992-34.801-9.6016-49.199-8.3984-44.398 1.1992-78 24-80.398 25.199l-8.3984 6 6 8.3984c1.1992 1.1992 2.3984 2.3984 3.6016 4.8008-8.3984-6-19.199-10.801-30-15.602l-24-9.6016-8.3984 24c-4.8008 13.199-7.1992 25.199-8.3984 37.199-2.3984 6-16.801 42-30 67.199-18-33.602-38.398-68.398-58.801-85.199-1.1992-6-3.6016-12-6-19.199l-3.6016-9.6016h-1.1992l-21.598-21.598c7.1992-45.602 1.1992-85.199-20.398-116.4-36-54-102-66-104.4-66l-10.801-2.3984-1.2109 10.801c-7.1992 58.801 4.8008 106.8 32.398 140.4-18 2.3984-33.602 9.6016-45.602 16.801-3.6016 0-7.1992-1.1992-10.801-1.1992-62.398-4.8008-108 27.602-181.2-27.602 13.199-12 42-33.602 79.199-38.398 19.199-2.3984 26.398-8.3984 31.199-15.602-10.801-9.6016-36-15.602-36-15.602-18-3.6016-34.801-14.398-51.602-32.398 9.6016-4.8008 25.199-10.801 42-12h10.801s25.199 2.3984 33.602-7.1992c-6-10.801-20.398-16.801-26.398-18-34.801-8.3984-63.602-34.801-85.199-76.801 8.3984-2.3984 20.398-4.8008 33.602-4.8008 27.602-1.1992 61.199 6 87.602 36 0 0 7.1992 9.6016 22.801 12 0-8.3984 1.1992-14.398-4.8008-22.801-13.199-18-18-39.602-13.199-67.199 14.398 4.8008 42 18 55.199 42v1.1992s8.3984 14.398 20.398 12c3.6016-8.3984 2.3984-14.398 0-21.602-21.602-42-18-88.801 9.6016-140.4 18 13.199 58.801 49.199 68.398 99.602 0 3.6016 3.6016 12 16.801 18 8.3984-13.199 7.1992-22.801 4.8008-27.602-20.398-46.801-12-93.602 25.199-139.2 14.398 15.602 44.398 55.199 44.398 102 0 4.8008 0 8.3984-1.1992 13.199 0 0-2.3984 15.602 6 26.398 13.199-4.8008 18-9.6016 19.199-20.398 1.1992-6 2.3984-10.801 3.6016-16.801 7.1992-20.398 22.801-37.199 46.801-48 10.801 27.602 12 52.801 4.8008 74.398 0 0-6 20.398 0 31.199 13.199-1.1992 20.398-6 25.199-18 3.6016-12 10.801-24 21.602-34.801 14.398 19.199 21.602 38.398 20.398 56.398 0 0 0 15.602 9.6016 24 8.3984-2.3984 13.199-12 13.199-21.602 3.6016-58.801 36-103.2 99.602-135.6 8.3984 22.801 24 82.801 2.3984 136.8 0 0-7.1992 21.602-2.3984 30 18-6 24-18 24-18 9.6016-14.398 25.199-24 45.602-31.199 4.8008 24 2.3984 44.398-6 61.199 0 0-10.801 18-8.3984 26.398 14.398 0 22.801-6 27.602-9.6016 24-19.199 54-27.602 93.602-27.602-2.3984 19.199-13.199 61.199-42 90-1.1992 1.1992-1.1992 1.1992-2.3984 2.3984 0 0-10.801 10.801-13.199 20.398 8.3984 4.8008 19.199 1.1992 25.199-3.6016 12-9.6016 26.398-16.801 45.602-21.602 0 13.199-1.1992 36-12 56.398-2.3984 4.8008-4.8008 9.6016-9.6016 14.398-1.1992 1.1992-2.3984 2.3984-3.6016 4.8008 7.1992 1.1992 14.398 3.6016 21.602 6 20.398 8.3984 37.199 25.199 52.801 48-12 4.8008-32.398 12-55.199 13.199-14.398 0-37.199-3.6016-70.801-1.1992-28.812 3.625-57.613 14.422-87.613 31.223zm126 75.602c-20.398 0-39.602-3.6016-56.398-13.199-15.602-24-32.398-39.602-48-50.398 74.398-38.398 136.8-25.199 186 39.602-14.402 8.3945-46.801 22.797-81.602 23.996z"/>
</svg>
